# xmcd
#
# Track frame offsets:
#	150
#	19081
#	34231
#	46025
#	115495
#	165618
#	197174
#	220954
#	284301
#
# Disc length: 4170 seconds
#
# Revision: 1
# Processed by: cddbd v1.5.2PL0 Copyright (c) Steve Scherf et al.
# Submitted via: audiograbber 1.83.01
#
DISCID=7e104809
DTITLE=Bloomfield,Mike - Live at Bill Graham's Fillmore West
DYEAR=2017
DGENRE=Blues
TTITLE0=It takes time
TTITLE1=Oh Mama
TTITLE2=Love got me
TTITLE3=Blues on a westside
TTITLE4=One more mile to go
TTITLE5=It's about time
TTITLE6=Carmelita Skiffle
TTITLE7=If I ever get lucky
TTITLE8=Stronger than dirt
EXTD=
EXTT0=
EXTT1=
EXTT2=
EXTT3=
EXTT4=
EXTT5=
EXTT6=
EXTT7=bonus recorded January to March 1969
EXTT8=bonus recorded January to March 1969
PLAYORDER=
